<svg width="44" height="43" viewBox="0 0 44 43" fill="none" xmlns="http://www.w3.org/2000/svg">
<path fill-rule="evenodd" clip-rule="evenodd" d="M11.0915 38.6749C11.0915 41.2725 3.63346 42.5713 6.56302 42.5713C6.76149 42.5713 15.8181 42.5713 16.0347 42.5714C16.4509 42.5714 25.3913 42.5713 25.5897 42.5713C28.5193 42.5713 21.0306 41.2725 21.0306 38.6749V32.8744H30.6086C31.7874 32.8744 32.4602 31.7173 31.753 30.9065L25.9596 24.2648H30.6891C31.8527 24.2648 32.5295 23.1338 31.8529 22.3197L24.8868 13.9381L28.0601 13.9382C29.2471 13.9382 29.919 12.7659 29.2007 11.9533C27.511 10.0415 26.1031 8.41437 24.9097 7.03495C20.1993 1.59077 18.8276 0.00530002 16.6363 0.00530002C16.4378 0.00530002 16.0031 -0.00662354 15.8181 0.00529779C15.6331 -0.00662354 15.6843 0.00530002 15.4858 0.00530002C13.2945 0.00530002 11.9228 1.59077 7.21241 7.03495C6.01893 8.41437 4.61112 10.0415 2.92134 11.9533C2.20313 12.7659 2.87501 13.9382 4.06202 13.9382L7.23527 13.9381L0.269155 22.3197C-0.407408 23.1338 0.269337 24.2648 1.43297 24.2648H6.16243L0.369106 30.9065C-0.338147 31.7173 0.334711 32.8744 1.51347 32.8744H11.0915V38.6749Z" fill="#A7DBAA"/>
<g style="mix-blend-mode:multiply">
<path fill-rule="evenodd" clip-rule="evenodd" d="M22.3151 38.6749C22.3151 41.2725 14.8264 42.5713 17.756 42.5713C17.9545 42.5713 27.0417 42.5713 27.2583 42.5714C27.6745 42.5714 36.5842 42.5713 36.7827 42.5713C39.7122 42.5713 32.2542 41.2725 32.2542 38.6749V32.8744H41.8322C43.011 32.8744 43.6839 31.7173 42.9766 30.9065L37.1833 24.2648H41.9127C43.0764 24.2648 43.7531 23.1338 43.0766 22.3197L36.1104 13.9381L39.2837 13.9382C40.4707 13.9382 41.1426 12.7659 40.4244 11.9533C38.7346 10.0415 37.3268 8.41437 36.1333 7.03495C31.423 1.59077 30.0512 0.00530002 27.8599 0.00530002C27.6614 0.00530002 27.2267 -0.00662354 27.0417 0.00529779C26.8567 -0.00662354 26.9079 0.00530002 26.7095 0.00530002C24.5181 0.00530002 23.1464 1.59077 18.436 7.03495C17.2426 8.41437 15.8348 10.0415 14.145 11.9533C13.4268 12.7659 14.0986 13.9382 15.2857 13.9382L18.4589 13.9381L11.4928 22.3197C10.8162 23.1338 11.493 24.2648 12.6566 24.2648H17.3861L11.5927 30.9065C10.8855 31.7173 11.5583 32.8744 12.7371 32.8744H22.3151V38.6749Z" fill="#295438"/>
</g>
<path fill-rule="evenodd" clip-rule="evenodd" d="M18.4217 7.02059C19.7197 5.52949 20.7664 4.32709 21.6473 3.36694C22.5282 4.32709 23.5749 5.52949 24.8729 7.02059L24.873 7.02074L24.8731 7.02087C26.077 8.40383 27.4971 10.0351 29.2016 11.9518C29.9261 12.7666 29.2483 13.9419 28.0509 13.9419L24.8498 13.9418L31.877 22.3453C32.5595 23.1615 31.8769 24.2955 30.703 24.2955H25.9321L31.7762 30.9546C32.4897 31.7675 31.8109 32.9276 30.6218 32.9276L25.4428 32.9276V40.5073C25.4428 41.1464 26.8717 41.7176 27.8187 42.0962C28.5608 42.3929 29.0071 42.5713 28.2377 42.5713H14.7209C13.9515 42.5713 14.3977 42.3929 15.1399 42.0962C16.0869 41.7176 17.5158 41.1464 17.5158 40.5073V32.9276L12.6727 32.9276C11.4836 32.9276 10.8049 31.7675 11.5183 30.9546L17.3625 24.2955H12.5915C11.4177 24.2955 10.735 23.1615 11.4175 22.3453L18.4447 13.9418L15.2436 13.9419C14.0462 13.9419 13.3684 12.7666 14.093 11.9518C15.7974 10.0352 17.2174 8.40392 18.4213 7.02099L18.4215 7.02074L18.4217 7.02059Z" fill="#68A76C"/>
<path fill-rule="evenodd" clip-rule="evenodd" d="M23.3633 42.5714H20.1124V33.0657C20.1124 31.8867 20.6499 31.2972 21.7248 31.2972C22.8171 31.2972 23.3633 31.8867 23.3633 33.0657V42.5714ZM20.2944 28.4364C20.6412 28.7311 21.118 28.8785 21.7248 28.8785C23.0079 28.8785 23.6494 28.3064 23.6494 27.162C23.6494 26.0177 23.0079 25.4456 21.7248 25.4456C21.118 25.4456 20.6412 25.5929 20.2944 25.8877C19.965 26.1824 19.8003 26.6072 19.8003 27.162C19.8003 27.6995 19.965 28.1243 20.2944 28.4364Z" fill="white"/>
</svg>
